<svg xmlns="http://www.w3.org/2000/svg" xmlns:xlink="http://www.w3.org/1999/xlink" height="800" width="1200" version="1.0" viewBox="-32.78325 -70.3475 284.1215 422.085"><g transform="translate(-.01) scale(.28125)"><use xlink:href="#a" transform="matrix(-1 0 0 1 777.14 0)" width="777.519" height="1000"/><g id="a"><path d="M412.622 886.404l1.705 6.651 15.276-48.29c-.65-.053-1.314.044-1.924-.225l-12.97-6.094c-.442 16.492-.872 29.847-1.314 46.338-.062.474-.183.937-.405 1.262-.032.046-.122.118-.158.16-.037.04-.119.123-.159.16l-.05.038z" fill="#841021" stroke="#8b1222"/><path d="M414.327 893.055l105.153-81.482-27.136 3.471c-4.067.475-6.641.97-8.127-.094-.697-.525-1.162-1.442-1.46-2.887l-3.23-10.367-45.125 41.604c-.86.829-1.958 1.427-3.143 1.651-.547.104-1.097-.142-1.656-.187z" fill="#bd2129" stroke="#bd2129"/><path d="M414.327 893.055l79.309-21.712c.039-1.612 1.027-3.368 2.899-4.46l27.384-18.215-11.86-5.256c-1.562-.636-2.953-2.69-2.166-5.306l9.677-26.52-.045-.006-.044-.007z" fill="#841021" stroke="#8b1222"/><path d="M412.844 886.844c-.035.026-.106.047-.125.062a1.99 1.99 0 01-.563.282c-.365.104-.85.135-1.344.062L366 918.531V930l43.875-32.688c.495.068.929.235 1.25.438.078.056.184.16.25.219.028.03.048.086.063.125.004.013.028.048.03.062.02.1.015.241.032.344.004.022.025.042.031.063l3-5.063z" transform="translate(-.003) scale(.9995)" fill="#bd2129" stroke="#bd2129"/><path d="M415.703 942.59l-1.376-49.535-2.993 5.129c.21.432.483.836.392 1.419-4.19 15.956-7.955 28.818-12.145 44.774l14.172-2.151c.685-.091 1.3.22 1.95.364z" fill="#bd2129" stroke="#bd2129"/><path d="M492.29 999.307l-77.963-106.252 1.376 49.535c.516.115 1.078.022 1.554.264 1.075.546 2.025 1.377 2.618 2.413l31.643 52.597 6.052-9.11c.555-1.05 1.085-1.74 1.708-2.126 1.786-1.047 4.15.237 8.272 1.979z" fill="#841021" stroke="#8b1222"/><path d="M484.477 935.681l-70.15-42.626 78.007 106.258.383.19-1.824-28.178c-.024-2.73 1.896-4.236 3.574-4.41l12.848-1.791-21.216-25.122a5.835 5.835 0 01-1.622-4.32z" fill="#bd2129" stroke="#bd2129"/><path d="M572.075 915.177l-157.748-22.122 70.15 42.626c.021-.537-.11-1.135.13-1.573.873-1.604 3.295-2.36 7.653-.746l47.924 16.27-4.721-13.35c-1.448-3.76-1.269-7.253 2.493-8.7z" fill="#841021" stroke="#8b1222"/><path d="M493.636 871.343l-79.31 21.712 157.749 22.122.382-.128-29.609-21.706c-3.206-2.442-2.388-5.928.053-9.134l8.25-11.485-50.564 2.232c-4.635.33-6.712-1.077-7.102-2.86-.053-.242.145-.501.15-.753z" fill="#bd2129" stroke="#bd2129"/><path d="M941.469 768.313l-65.5 63.843 65.5-63.812z" transform="rotate(97.983 971.484 677.432) scale(1.44114)"/></g><use xlink:href="#b" transform="rotate(-14.942 94.328 512.568)" width="744.094" height="1052.362"/><use height="1052.362" width="744.094" transform="rotate(-45.432 271.035 583.427)" xlink:href="#b"/><use height="1052.362" width="744.094" transform="scale(-1 1) rotate(-14.942 -294.242 3475.648)" xlink:href="#b"/><use xlink:href="#b" transform="scale(-1 1) rotate(-45.432 -117.536 1511.615)" width="744.094" height="1052.362"/><use xlink:href="#b" transform="matrix(-1 0 0 1 777.14 0)" width="777.519" height="1000"/><g id="b"><path d="M543.91 829.405l.055-6.866 26.448 43.194c-.618.207-1.286.273-1.813.681l-11.122 9.036c-4.398-15.9-8.03-28.76-12.428-44.659-.174-.445-.402-.865-.696-1.127-.042-.036-.147-.085-.192-.117a3.51 3.51 0 00-.193-.117l-.058-.025z" fill="#bd2129" stroke="#bd2129"/><path d="M543.965 822.54l121.669 53.777-27.173 3.162c-4.062.518-6.68.657-7.866 2.047-.55.677-.78 1.68-.721 3.154l-.64 10.84L575.423 866c-1.033-.598-2.244-.914-3.447-.847-.557.031-1.031.402-1.563.58z" fill="#841021" stroke="#8b1222"/><path d="M543.965 822.54l82.2 1.986c.426 1.555 1.807 3.022 3.887 3.63l30.963 11.09-10.246 7.955c-1.364.994-2.219 3.323-.826 5.672l15.774 23.41-.041.017-.042.017zm-4.14-4.258l4.14 4.257-.054 6.866a2.13 2.13 0 00-.753-.183c-.38-.013-.834.089-1.296.279l-54.765-21.03-2.52-6.024-2.412-6.117 56.35 23.644a3.223 3.223 0 001.111-.738c.067-.073.13-.19.184-.268.122-.192-.031-.467.015-.686z" fill="#bd2129" stroke="#bd2129"/><path d="M909.875 826.438l-33.906 5.718 3.812 1.563c.277-.187.529-.413.938-.407 11.368 1.342 20.569 2.69 31.937 4.032l-2.843-9.532c-.129-.461.026-.914.062-1.375z" fill="#841021" stroke-width=".694" transform="scale(-1.4411 1.4411) rotate(-68.091 55.825 1629.019)"/><path d="M594.062 700.651L543.965 822.54l-10.586-48.408c.474-.236 1.042-.28 1.445-.63.911-.789 1.634-1.824 1.96-2.972l18.053-58.665 8.068 7.386c.79.885 1.47 1.428 2.169 1.652 1.985.586 3.97-1.229 7.552-3.912z" fill="#bd2129" stroke="#bd2129"/><path d="M601.792 764.285l-57.827 58.254 50.14-121.905.325-.276 5.011 27.788c.634 2.656 2.86 3.655 4.53 3.42l12.902-1.354-14.546 29.49c-.899 1.582-.933 3.21-.535 4.583z" fill="#841021" stroke="#8b1222"/><path d="M875.969 721.625v110.531l22.531-52.312c-.371.037-.77.184-1.094.062-1.186-.445-1.939-2.037-1.25-5.187l6.563-34.5L894 744.75c-2.445 1.357-4.862 1.57-6.219-.875z" fill="#bd2129" stroke-width=".694" transform="scale(-1.4411 1.4411) rotate(-68.091 55.825 1629.019)"/><path d="M626.165 824.526l-82.2-1.987 147.782-59.435.401.033-23.513 28.193c-2.524 3.141-.892 6.328 2.25 8.852l10.771 9.162-49.613 10.003c-4.579.795-6.256 2.66-6.205 4.485.007.247.26.451.327.694z" fill="#841021" stroke="#8b1222"/><path d="M941.469 768.313l-65.5 63.843 65.5-63.812z" transform="scale(-1.4411 1.4411) rotate(-68.091 55.825 1629.019)"/></g><use xlink:href="#b" transform="rotate(-66.518 251.118 590.501)" width="744.094" height="1052.362"/><path d="M190.232 417.15l6.276-2.785-50.155-7.048c.056.65.262 1.289.098 1.935l-3.856 13.801c16.335-2.301 29.576-4.095 45.911-6.396.478-.017.954.025 1.312.19.05.024.137.1.184.13.046.029.14.096.184.13l.046.043z" fill="#841021" stroke="#841021"/><path d="M196.508 414.365L98.704 324.2l7.927 26.182c1.143 3.932 2.06 6.389 1.257 8.03-.402.774-1.23 1.386-2.606 1.918l-9.686 4.907 48.516 37.592c.96.709 1.732 1.693 2.15 2.824.193.523.042 1.106.09 1.664z" fill="#bd2129" stroke="#bd2129"/><path d="M196.508 414.365l-34.575-74.602c-1.597.23-3.492-.453-4.879-2.118l-22.508-23.98-3.214 12.567c-.368 1.647-2.163 3.36-4.873 3.017l-27.757-5.14v.046l.002.045z" fill="#841021" stroke="#841021"/><path d="M202.062 416.465l-5.554-2.1-6.276 2.785.092.088c.144.142.276.337.375.53.164.342.252.8.261 1.3l41.11 41.85 6.53-.09 6.57-.225-44.138-42.263a3.223 3.223 0 01.234-1.312c.04-.09.122-.196.173-.276.127-.187.44-.157.623-.287z" fill="#bd2129" stroke="#bd2129"/><path d="M245.125 404.786l-48.617 9.579 5.554 2.1c.391-.28.744-.615 1.334-.622 16.43 1.483 29.737 3.06 46.167 4.544l-4.473-13.618c-.204-.66.001-1.318.035-1.983z" fill="#bd2129" stroke="#bd2129"/><path d="M288.34 319.85l-91.832 94.515 48.617-9.58c.027-.528-.158-1.067.002-1.576.36-1.15 1.022-2.226 1.945-2.982l46.613-39.933-9.988-4.456c-1.128-.373-1.896-.781-2.38-1.332-1.329-1.587-.455-4.13.578-8.485z" fill="#841021" stroke="#841021"/><path d="M226.896 338.115l-30.388 76.25 91.83-94.56.125-.41-27.484 6.477c-2.689.476-4.492-1.167-4.942-2.793l-3.899-12.372-21.25 25.091c-1.094 1.455-2.574 2.136-3.992 2.317z" fill="#bd2129" stroke="#bd2129"/><path d="M192.136 255.14l4.372 159.225 30.388-76.25c-.533.068-1.101.296-1.573.133-1.727-.595-2.874-2.858-2.006-7.423l8.09-49.959-12.381 6.873c-3.468 2.051-6.942 2.454-8.993-1.015z" fill="#841021" stroke="#841021"/><path d="M161.933 339.763l34.575 74.602-4.372-159.226-.19-.355-16.489 32.8c-1.875 3.566-5.449 3.339-9.015 1.463l-12.695-6.229 10.594 49.491c1.095 4.516.053 6.798-1.642 7.479-.228.091-.517-.06-.766-.024z" fill="#bd2129" stroke="#bd2129"/><path d="M288.339 319.804l-91.831 94.561 91.832-94.516z"/><g transform="translate(-179.117 -253.712) scale(1.47133)" stroke="#000" stroke-linecap="square" stroke-dashoffset="1"><ellipse ry="172.727" rx="149.438" cy="574.937" cx="386.21" transform="matrix(1.08348 0 0 1.11739 -32.617 -68.854)" fill="#ffce31" stroke-width="2.727"/><ellipse ry="174.63" rx="149.438" cy="574.937" cx="386.21" transform="matrix(1 0 0 1.0313 -.376 -19.357)" fill="#29007b" stroke-width="2.954"/></g><g transform="translate(-.953) scale(.9995)" stroke="#000"><path d="M389.143 337.424c-.296.005-.579.034-.874.046-.182.008-.37.035-.552.046-13.9.623-26 11.188-29.533 23.6-2.781 9.737-.786 21.084 5.612 29.164 1.662-.408 3.38-.936 5.06-1.656 3.238-1.388 6.056-3.228 8.326-5.244-7.944-7.179-6.914-21.294 1.242-27.28 8.461-7.286 23.874-3.866 27.97 7.04 4.774 10.248-2.555 23.679-13.847 24.932-1.273.149-2.568.043-3.726.23l-.046.046a37.416 37.416 0 01-4.462 4.462h-11.5v12.099H264.34v27.233l104.562 36.663-5.75 276.84c0 32.805-90.861-12.48-93.66-34.226 6.405-1.012 13.924-.923 21.575-.69-24.625-15.751-35.413-34.436-47.52-50.188-5.652 21.374-4.76 51.366.782 82.068 3.836-6.736 5.46-13.871 11.132-19.69 21.14 62.004 80.2 52.177 134.28 114.361 54.079-62.184 113.093-52.357 134.233-114.36 5.672 5.818 7.296 12.953 11.133 19.689 5.541-30.702 6.433-60.694.782-82.068-12.107 15.752-22.85 34.437-47.474 50.188 7.65-.233 15.123-.322 21.529.69-2.8 21.745-93.66 67.031-93.66 34.226l-5.704-276.84 104.516-36.663v-27.233H406.623v-6.578c4.098-2.414 7.667-5.718 10.259-9.799 9.947-13.756 6.215-34.83-7.544-44.53a32.796 32.796 0 00-20.195-6.578z" fill="#ffce31" fill-rule="evenodd" stroke-width="2.944"/><path d="M389.726 461.71v350.75M523.88 698.783c-15.737 68.271-105.216 77.669-134.153 113.676-28.936-36.007-118.415-45.405-134.152-113.676m249.812-285.2v10.668l-115.66 37.46-115.659-37.46" fill="none" stroke-width="2.944"/><path d="M312.075 404.865v-3.899a3.543 3.543 0 013.55-3.55h4.34a3.543 3.543 0 013.55 3.55v49.708a3.543 3.543 0 01-3.55 3.55h-4.34c-1.943 0-3.55-1.317-3.55-3.55v-1.94m-25.025-43.869v-3.899a3.543 3.543 0 013.55-3.55h4.34a3.543 3.543 0 013.55 3.55v43.396a3.543 3.543 0 01-3.55 3.55h-4.34a3.543 3.543 0 01-3.55-3.55v-4.83" style="marker:none" overflow="visible" stroke-width="2.944" fill="#ffce31" fill-rule="evenodd" stroke-linecap="round"/><path d="M347.281 371.005c-.413.026-.83.085-1.242.138-3.733-.34-4.496 3.89-6.256 5.337a3.04 3.04 0 01-.368.23c-4.875-2.696-8.697 2.527-12.145 5.198.196 5.673-6.07 2.587-8.188 7.452-2.943 2.844-6.148 5.9-5.198 10.443-5.259-.783-6.953 5.136-9.43 8.556 2.911 6.55-3.586 5.005-5.475 9.476-1.982 4.051-5.248 8.38-2.346 12.88-5.313.938-7.367 13.528-8.7 17.578 4.919 4.013-1.565 5.354-1.472 9.66-.297 5.27-2.404 10.134-1.142 15.242.741.237 1.268.544 1.61.874.038.039.104.1.138.138 1.746 2.12-2.616 5.801-.046 8.925 1.739 5.294 3.125 11.565 6.946 15.548.971.026 1.677.192 2.162.46.037.022.104.07.138.092.034.023.107.069.138.092.01.008.036.038.046.046 1.99 1.72-1.05 6.123 2.484 8.327 2.737 3.035 4.853 7.599 8.649 9.108.754-.21 1.35-.208 1.794-.092.035.01.104.034.138.046.022.008.07.037.092.046 2.224.998.59 6.233 4.416 7.13 3.363 2.236 6.324 6.62 10.304 6.947 2.693.323 4.373 5.64 8.28 6.486 3.35 4.058 8.136-1.31 9.431 4.784 2.89 3.588 8.46 3.377 11.086 4.232 2.8 5.017 9.43 5.867 13.939 9.017 30.32 16.548 65.038 27.342 89.61 51.824 3.5 3.732 6.602 8.248 11.224 10.949-2.077 3.44 2.592 6.718 2.76 10.35.78 3.915 4.423 6.13.184 9.292-.359 3.358-3.418 6.536-1.518 10.029-4.344.998-6.46 5.147-7.176 9.2-4.32-1.247-6.97 3.585-8.649 6.808-3.563-2.332-6.705 2.165-9.982 3.22-1.3 5.81-6.456.634-10.166 4.279-4.439-.051-4.542 6.766-8.879 3.266-3.996 1.708-9.548 1.572-10.902 6.578-4.193-2.954-8.92-.317-13.11 1.15-.16.719-.39 1.289-.645 1.702-.053.084-.127.204-.184.276-.077.094-.193.2-.276.276-.02.019-.07.075-.092.092a2.421 2.421 0 01-.368.23c-2.293 1.108-6.225-2.28-9.246.46-4.724.069-4.659 7.554-9.615 3.174-3.89 1.462-9.551 1.406-10.948 6.165-3.684-2.657-7.685.478-11.178 1.886-1.198 6.681-5.886.846-9.615 4.232-4.789.231-4.807 7.754-9.384 5.014-3.838 2.83-9.886 4.377-10.12 9.983-4.596-1.75-7.425 3.128-10.397 5.75.557 6.232-3.914 4.113-6.716 7.36-2.492 3.17-5.452 6.38-4.6 10.764-1.904-.031-3.114.915-4.003 2.3a164.875 164.875 0 0017.113 8.143c.335-.728.72-1.402 1.196-1.978-1.37-5.038 4.522-3.92 6.026-8.28 2.815-3.23 3.087-5.708 6.993-7.223 2.811-2.876 7.2-4.351 7.314-9.016 4.647 1.614 9.283-1.783 10.902-6.072 3.99 2.454 7.726-1.993 11.639-2.899 1.516-5.054 6.662-.747 10.35-4.14 4.505-1.915 4.987-6.453 10.397-3.634 4.162-.87 8.548-2.817 10.488-5.612 3.734 2.363 8.849.087 12.007-1.978.159-.638.393-1.121.644-1.472.026-.036.065-.105.092-.138.018-.022.073-.072.092-.092.037-.04.098-.103.138-.138.049-.042.132-.103.184-.138 2.067-1.368 5.878 2.169 8.786-.092.116-.094.254-.21.368-.322 4.202.431 5.087-4.84 7.866-4.646.149.013.346.045.506.092.529.16 1.148.51 1.84 1.104 4.133-1.115 9.23-1.887 10.489-6.763 3.859 3.12 8.167-.145 11.592-1.84 1.212-5.507 6.427-.844 9.66-5.014 3.35-3.103 4.583-4.82 8.649-5.934 2.932-2.491 6.576-4.71 6.67-9.063 4.594.805 6.16-5.257 8.649-8.234 3.837-2.56-1.454-8.097 2.806-9.016 3.32-1.996 3.136-7.051 3.864-10.673 2.088-3.688-3.593-6.767-1.656-9.2 2.073-2.968-1.005-7.017-1.748-10.305-1.307-3.681-3.598-6.715-7.085-8.648 2.415-3.375-2.681-6.11-4.14-8.878-20.256-23.49-47.345-33.821-73.879-49.432-10.771-5.952-25.525-12.203-36.661-17.297-3.905 2.285-5.175-5.409-10.028-5.336-4.297-.981-5.802-1.717-9.293-4.83-3.06-2.883-7.573-3.364-10.028-4.37-1.374-3.672-5.101-6.125-8.373-7.453-4.882 1.252-2.447-5.616-6.716-7.084-1.124-3.07-6.427-2.613-7.452-4.693-.015-.031-.033-.105-.046-.138-.008-.022-.039-.069-.046-.092a2.84 2.84 0 01-.046-.184c-.093-.523.023-1.215.46-2.07-.478-3.785-4.19-6.955-5.244-10.718-6.023-1.9-1.915-5.36-3.266-9.476-1.231-4.199 3.538-14.966-.002-18.191 4.427-2.83 2.242-8.795 4.048-13.11.045-.203.115-.369.184-.507.01-.02.034-.072.046-.092.029-.045.06-.1.092-.138l.046-.046.046-.046c.02-.017.07-.03.092-.046.007-.005.038-.041.046-.046.008-.004.038.004.046 0 .008-.003.038-.042.046-.046.008-.003.037.003.046 0 .008-.002.037.002.046 0 .009-.002.037-.044.046-.046.017-.002.074.001.092 0h.046c1.45.027 4.112 3.142 5.98 3.175.036 0 .103-.044.138-.046.035-.003.104.006.138 0a1.51 1.51 0 00.552-.23 1.98 1.98 0 00.368-.368c.114-.157.226-.375.322-.598 1.448-3.392 5.823-5.606 4.554-9.753 4.864-.1 7.059-4.87 10.213-7.866-.2-.826-.204-1.48-.046-1.978.914-2.727 6.487-1.369 7.866-5.382a4.233 4.233 0 001.518-.737c2.445-1.95 1.605-6.358 3.496-7.682.032-.021.104-.072.138-.092.481-.27 1.142-.386 2.024-.23 4.196-.496 6.357-5.398 9.247-8.142 6.192-7.11 10.352-18.308 4.37-26.773-2.769-4.936-8.247-7.058-13.709-6.717zM294.38 770.854a8.228 8.228 0 001.012 2.99c-3.75 1.812-1.843 7.25-2.668 10.718 3.496 4.048-1.415 6.174.046 10.903 2.603 2.785 8.63 4.498 12.558 5.106 4.737 1.01 8.309-1.348 5.98-6.21-3.272-3.556.783-8.774.967-13.249-6.26-3.357-12.248-6.666-17.895-10.258z" fill="#ffce31" stroke-width="2.944" stroke-linecap="round" stroke-linejoin="round"/><path d="M340.84 394.558c-1.794 2.094-4.01 4.468-6.531 6.947a484.45 484.45 0 01-7.269 6.992c3.254-4.032 6.564-7.773 9.753-10.672 1.43-1.3 2.719-2.244 4.048-3.267zm-13.8 13.939c-9.457 11.947-13.865 24.25-17.624 35.384" fill="none" stroke-width="2.944" stroke-linecap="round" stroke-linejoin="round"/><path d="M364.486 350.535c-3.528.536-7.143 1.569-10.673 3.082-7.925 3.397-14.263 8.692-18.17 14.996-1.992 3.214-3.363 6.79-3.819 10.443 1.232-.897 1.984-1.515 4.808-2.862.481-.23 3.116 1.51 3.603 1.288.507-.231.745-3.23 1.244-3.448 2.732-1.187 5.25-2.105 6.446-2.2.015-.017.031-.03.046-.047 2.5-2.768 5.997-5.369 10.213-7.222a31.825 31.825 0 016.302-14.03zm18.493 2.116a18.676 18.676 0 00-10.213 9.384 20.13 20.13 0 012.024.322c4.507.942 7.289 3.054 8.465 5.796 1.175 2.743.769 6.161-1.657 10.075-2.425 3.914-6.867 7.878-12.742 10.396-5.875 2.519-11.87 3.058-16.377 2.116a16.36 16.36 0 01-3.542-1.15 8.368 8.368 0 00-1.288.46c-2.16.99-5.58 3.262-9.338 6.487 3.251 2.913 7.39 4.833 11.776 5.75 7.26 1.517 15.49.545 23.415-2.852 7.926-3.398 14.218-8.692 18.125-14.997s5.406-14.008 2.438-20.93c-2.152-5.02-6.242-8.67-11.086-10.857z" style="marker:none" overflow="visible" fill="#ffce31" fill-rule="evenodd" stroke-width="2.944"/><path d="M322.242 436.745l-6.44-8.742m15.819-1.505l-8.48-10.987m21.73-3.401l-7.256-11.452m-48.318 50.976l16.268 7.035" fill="none" stroke-width="2.944" stroke-linecap="round"/><path d="M296.68 430.885l12.579 11.172m-4.012-28.51l10.72 11.105m-1.451-24.09l9.632 11.173m2.402-26.154l7.07 15.389m7.751-22.821l2.153 14.64m-54.339 83.108l15.565 7.85m-6.412 15.878l18.005.621m11.504 11.489l-17.36 5.177m29.987 3.798l-13.095 10.66m26.748-3.674l-13.665 10.756m21.894-4.056l-8.62 11.533" style="marker:none" overflow="visible" fill="none" stroke-width="2.944" stroke-linecap="round"/><path d="M338.954 420.68l-9.092-14.105" fill="none" stroke-width="2.944" stroke-linecap="round"/><path d="M468.056 617.08l12.195-7.974m-6.566 25.327l13.602-5.159m-16.885 18.761l14.07.47m-21.575 9.38l12.195 7.036m-21.576-.469l9.381 10.787m-20.637-5.159l9.38 12.664m-24.39-7.036l11.726 10.788m-25.327-5.159l11.256 10.319m-26.735-6.566l10.788 11.256m-26.266-6.097l13.133 10.787m-26.265-6.097l11.725 10.788m-25.797-5.16l10.788 10.788m-25.328-4.221l11.257 9.85m-23.452-.47l12.664 7.036m-23.92 2.814l12.194 7.505m-22.982 7.035l14.07 2.814m-27.672 43.621l16.416-.47" style="marker:none" overflow="visible" fill="none" stroke-width="2.944" stroke-linecap="round"/><path d="M455.938 404.865v-3.899a3.543 3.543 0 013.55-3.55h4.34a3.543 3.543 0 013.55 3.55v49.708a3.543 3.543 0 01-3.55 3.55h-4.34a3.54 3.54 0 01-2.513-1.037c-.641-.642.45.447-1.037-1.041m25.025-47.281v-3.899a3.543 3.543 0 013.55-3.55h4.34a3.543 3.543 0 013.55 3.55v43.396a3.543 3.543 0 01-3.55 3.55h-4.34a3.543 3.543 0 01-3.55-3.55v-.333" style="marker:none" overflow="visible" fill="#ffce31" fill-rule="evenodd" stroke-width="2.944" stroke-linecap="round"/><circle r="5.104" cy="464.653" cx="387.095" transform="translate(-180.101 -253.838) scale(1.47206)" style="marker:none" overflow="visible" fill="none" stroke-width="2" stroke-linecap="round"/></g><g transform="translate(-.962) scale(.9995)"><g transform="translate(-181.23 -253.838) scale(1.47206)"><g id="c"><path d="M223.575 628.467l-52.247 35.004 16.006 19.013 51.388-32.199c.562-9.612-7.24-15.74-15.147-21.818z" fill="#ffce31" fill-rule="evenodd" stroke="#000" stroke-width="1.399"/><path d="M205.031 640.906l-1.75 1.157 14.031 21.656 1.75-1.094zm-3.312 2.188l-1.688 1.156 13.938 21.563 1.719-1.094zm-3.281 2.218l-1.688 1.125 13.875 21.47 1.75-1.095zm-3.282 2.188l-1.687 1.125L207.28 670l1.719-1.094zm-3.281 2.219l-1.688 1.125 13.75 21.25 1.72-1.063zm-3.281 2.187l-1.688 1.125 13.688 21.157 1.719-1.094zm-3.25 2.188l-1.719 1.125 13.625 21.062 1.719-1.093zm-3.281 2.187l-1.72 1.157 13.532 20.968 1.781-1.125zm-3.282 2.219l-1.719 1.156 13.5 20.844 1.72-1.094z" fill-rule="evenodd" stroke-width="2.051"/><circle r="12.084" cy="344.056" cx="616.485" transform="matrix(1.20142 0 0 1.10273 -566.976 296.588)" fill="#ffce31" stroke="#000" stroke-width="1.43" stroke-linecap="round" stroke-linejoin="round" stroke-dashoffset="1"/><circle r="3.229" cy="338.118" cx="613.152" transform="matrix(1.20142 0 0 1.10273 -566.976 296.244)" fill="none" stroke="#000" stroke-width="1.43" stroke-linecap="round" stroke-linejoin="round" stroke-dashoffset="1"/><circle r="3.229" cy="338.118" cx="613.152" transform="matrix(1.20142 0 0 1.10273 -556.087 299.345)" fill="none" stroke="#000" stroke-width="1.43" stroke-linecap="round" stroke-linejoin="round" stroke-dashoffset="1"/><circle r="3.229" cy="338.118" cx="613.152" transform="matrix(1.20142 0 0 1.10273 -558.841 308.88)" fill="none" stroke="#000" stroke-width="1.43" stroke-linecap="round" stroke-linejoin="round" stroke-dashoffset="1"/><circle r="3.229" cy="338.118" cx="613.152" transform="matrix(1.20142 0 0 1.10273 -569.228 306.582)" fill="none" stroke="#000" stroke-width="1.43" stroke-linecap="round" stroke-linejoin="round" stroke-dashoffset="1"/><path d="M221.205 627.265l327.635-205.71 13.813.871-332.9 216.17z" fill="#fff" fill-rule="evenodd" stroke="#000"/><path d="M562.653 422.426l-2.071 12.282-322.283 215.22-8.547-11.332z" fill="silver" fill-rule="evenodd" stroke="#000"/><path d="M212.152 594.8l15.117.504-1.974 30.27 16.752 4.828-2.674 17.595 28.21 11.809-5.543 12.598-50.644-18.645z" fill="#ffce31" fill-rule="evenodd" stroke="#000" stroke-width="2"/></g></g><use xlink:href="#c" transform="matrix(-1.47206 0 0 1.47206 960.683 -253.838)" width="744.094" height="1052.362"/></g><path d="M454.887 584.07c-4.891.34-8.095 3.123-8.368 4.414-.003.019 0 .073 0 .092 0 .019-.004.073 0 .092.003.009-.003.037 0 .046.008.018.035.073.046.092.006.009.04.037.046.046.042.054.119.13.183.184.046.035.13.103.184.138 2.188 1.336 11.056 2.345 16.737 2.85h4.919c-1.571-2.51-2.327-4.454-7.678-6.529l-6.023-1.425h-.046z" fill="#ffce31" fill-rule="evenodd" stroke="#000" stroke-width=".736"/><path d="M626.342 488.296c-49.108 7.9-143.587 39.173-225.297 45.565.067.014.116.032.184.046 1.99.398 2.25 1.934 3.863.322.004-.004.041.004.046 0 .01-.007.034-.04.046-.046.722-.375 4.007.046 4.735.046h.046c.02 0 .074-.002.092 0 .01 0 .037.044.046.046.01.002.038-.002.046 0s.038-.003.046 0 .038.043.046.046c.008.003.039-.004.046 0 .022.011.071.032.092.046.075.052.17.154.23.23.511.697.579 2.187 1.241 2.85.946.946 1.006 2.333 1.61 3.54.335.671 1.152 2.192 1.7 2.575.014.01.034.04.047.046.007.003.04-.003.046 0 .006.003.04.044.046.046h.138c.005-.002.04-.043.046-.046a.712.712 0 00.046-.046c.004-.006.042-.039.046-.046.004-.006-.004-.038 0-.045.004-.008.042-.038.046-.046.023-.066.03-.18.046-.276.02-.143.046-.34.046-.552 0-1.914.952-2.845 1.287-4.184.072-.288.148-.489.23-.598l.046-.046c.004-.004.042.003.046 0 .004-.003-.004-.043 0-.046.004-.002.041.002.046 0h.138a.95.95 0 01.092.046c.01.007.036.038.046.046.39.346.919 1.368 1.609 1.885 1.568 1.176 1.382 2.405 2.897 3.54.012.01.034.037.046.047.713.678.684 2.966 1.563 4.138l.046.046c.01.009.034.038.046.046.012.007.033.04.046.046.006.002.04-.002.046 0 .007.002.039-.001.046 0h.184c.008-.002.037.002.046 0 .859-.224 2.325-1.986 2.437-2.07.009-.005.037-.04.046-.045.017-.011.074-.037.092-.046.026-.012.066-.038.091-.046.017-.005.076.003.092 0h.138c.008 0 .038-.002.046 0s.038-.002.046 0c.008.003.038.043.046.046.032.013.107.027.138.046.008.005.038.04.046.046.737.543 1.35 2.453 2.115 3.218 1.645 1.645.87 2.688 3.219 3.862.066.03.168.077.23.092.036.008.103-.003.138 0 .034.001.105.004.138 0 .021-.003.07.005.091 0 .021-.006.072-.037.092-.046.02-.009.073-.035.092-.046.01-.006.037-.04.046-.046.018-.013.075-.03.092-.046a.665.665 0 00.046-.046c.042-.043.1-.131.138-.184a3.64 3.64 0 00.092-.137c.602-1.042.736-3.182.736-3.725 0-.743.135-2.625.23-2.988.002-.007-.002-.041 0-.046.004.006.042.031.046.046.02.124.046.46.046 1.057 0 1.134 1.408 3.018 1.93 3.54 2.123 2.123 3.106 3.45 5.104 6.116 1.404 1.871 3.587 2.598 5.472 3.54 1.2.6 2.335 1.329 3.54 1.931.008.004.038-.005.046 0s.039.04.046.046c.085.075.15.196.23.276 4.03.6 7.34 2.301 9.656 5.472 9.34 3.56 18.312 7.373 12.552 21.84-2.083-3.277-6.27-7.895-9.702-8.507-.8-.142-1.395.07-1.839.46-.053.049-.135.13-.184.184-.019.022-.073.07-.092.092-.695.895-.9 2.385-.873 3.449-8.156-2.686-14.017 1.818-14.392 3.586-.003.019 0 .073 0 .092.001.019-.004.073 0 .092.003.009-.003.037 0 .046l.046.092c.006.009.04.037.046.046.043.054.12.13.184.184.046.035.13.103.184.138 3.288 2.008 21.656 3.218 21.656 3.218-.712 1.895-2.695 6.969-9.931 4-1.186.162-2.408.138-3.633.138-1.331 0-2.173.322-3.586.322-1.323 0-2.483-.395-3.494-.598-.82-.164-1.525-.74-2.207-1.15-1.208-.724-2.837-.285-4.046-1.01-.01-.007-.035-.043-.046-.047h-.092c-.038.005-.1.042-.138.046h-.046c-.446-.043-1.649-.745-2.161-.873-.987-.247-1.809-.626-2.759-1.196-.01-.006-.034.006-.046 0-.768-.355-3.185-.138-4-.138-.388 0-.776.024-1.15.046l.46.69c8.15 6.769 14.81 13.014 22.116 9.656 6.26 2.357 18.226 4.213 23.541-2.253 5.034-.32 13.439.845 15.633-.736.119-.09.244-.214.322-.322.022-.033.074-.103.092-.138.022-.047.03-.134.046-.184a1.46 1.46 0 00.046-.368c-.039-.688-.6-1.654-1.885-2.896 5.653 1.157 10.678 1.702 11.678-1.793 5.672.704 16.986 1.1 18.898-1.702.067-.105.143-.254.184-.368.14-.43.105-.949-.184-1.517 10.5 1.552 14.27 1.41 15.495.644.04-.027.103-.064.138-.092l.046-.046.045-.046.046-.046c.006-.008.04-.038.046-.046.018-.023.032-.068.046-.092.005-.008.042-.038.046-.046.017-.033.034-.104.046-.138.261-.77-.45-1.807-.184-2.575.003-.008-.003-.037 0-.046.004-.008.043-.037.046-.046.004-.008-.004-.038 0-.046.005-.008.041-.038.046-.046.027-.039.058-.1.092-.138l.046-.046.046-.046c.034-.028.099-.065.138-.091 7.091.824 13.218 1.192 15.357-.184.122-.082.274-.183.368-.276.046-.048.1-.134.138-.184.037-.051.108-.13.138-.184.017-.033.032-.104.046-.138.018-.046.033-.136.046-.184.012-.049.04-.133.046-.184.01-.09.006-.224 0-.322-.045-.534-.33-1.175-.874-1.93 10.474 2.624 19.896 4.373 18.576-2.438 12.037 1.658 14.09-1.998 13.484-5.082 4.664 1.934 23.77 5.443 17.23-6.734 7.617 1.803 26.445 4.718 23.415-6.174 7.095.995 48.444 7.74 34.288-6.93 9.646-1.359 54.301 2.688 30.3-12.507 30.66 4.588 84.955-6.51 44.554-16.046 63.676-13.955 43.173-17.245 4.46-18.254 8.29-3.016 10.924-7.445 14.713-11.586-20.534 2.11-31.54 1.49-44.14 1.333 4.206-3.269 5.583-6.525 6.253-9.794-25.384 2.353-54.112 2.953-82.44 6.622-.915-2.668-2.44-6.045-8.046-7.541z" style="marker:none" overflow="visible" fill="#ffce31" fill-rule="evenodd" stroke="#000" stroke-width="1.471"/><path d="M455.246 584.052c-5.145.23-8.529 3.163-8.746 4.466-.002.009.001.022 0 .031a.54.54 0 00.063.25c1.034 1.624 12.242 2.801 18.272 3.31l2.03-.311c-.49-2.346-.395-4.683-5.934-7.028v.125c-2.056-.677-3.97-.92-5.685-.844z" fill="#bd2129" fill-rule="evenodd" stroke="#000"/><path d="M423.3 596.346c-15.633 13.614-38.749 14.833-55.313 5.104-13.28 14.303-31.705 20.2-50.67 27.22 1.287 3.295-.02 6.59 5.334 9.885 2.784 6.138 5.762 12.017 16.139 8.874.963 8.174 7.003 9.13 13.932 8.782 2.688 6.536 10.14 5.543 17.793 4.276 4.257 2.11 9.521 3.377 14.392.827 3.993 4.93 13.571 2.92 16.552-.505 6.872 3.792 12.415 2.226 17.242-2.161 5.69.613 11.534 1.602 13.242-5.748 8.892 2.804 12.009-.156 12.736-5.517 6.318.265 10.44-2.072 10.622-8.966 7.244.542 8.833-2.957 8.965-7.495-17.848-8.862-29.688-21.463-40.737-34.576z" fill="#ffce31" fill-rule="evenodd" stroke="#000" stroke-width="1.471"/><path d="M373.642 604.255l-12.696 12.184c8.327 3.931 14.078 4.084 21.48 3.08l.274-12.552a47.214 47.214 0 01-9.058-2.712z" fill="#ffce31" fill-rule="evenodd" stroke="#000" stroke-width="1.471"/><path d="M379.158 606.429l-3.465 11.32m.693-12.129l-7.855 10.858" stroke-width="1.471" fill="none" stroke="#000"/><path d="M352.832 585.575c13.43 25.264 50.504 29.806 71.92 9.463.947-.9 1.051-2.04 1.934-3.039.454-.113 1.77.045 2.411.045 1.128 0 2.192-.146 3.34-.146.842 0 3.387-.262 4.067.146.95.57 1.772.915 2.759 1.162.529.132 1.769.87 2.178.87.097 0 .208-.049.29 0 1.21.727 2.859.293 4.067 1.017.683.41 1.36.998 2.179 1.162 1.011.203 2.162.581 3.485.581 1.413 0 2.299-.29 3.63-.29 1.225 0 2.442.018 3.628-.144 7.236 2.969 9.2-2.113 9.912-4.008 0 0-22.533-1.473-22.13-3.887.29-1.738 6.201-6.329 14.422-3.622-.046-1.767.497-4.622 2.994-4.177 3.432.61 7.585 5.237 9.669 8.513 5.76-14.466-3.2-18.302-12.54-21.864-2.317-3.17-5.615-4.866-9.646-5.466-.107-.107-.186-.253-.321-.321-1.205-.603-2.338-1.33-3.537-1.93-1.885-.942-4.063-1.665-5.466-3.536-1.999-2.665-3.022-3.987-5.145-6.11-.522-.522-1.929-2.402-1.929-3.536 0-2.94-.321.797-.321 1.93 0 .797-.219 5.034-1.93 4.179-2.35-1.175-1.57-2.213-3.215-3.858-1.02-1.02-1.74-4.08-2.894-3.216-.137.104-2.294 2.729-2.893 1.93-.907-1.21-.819-3.588-1.608-4.18-1.515-1.136-1.326-2.36-2.894-3.537-1.162-.872-1.79-3.131-2.25-1.286-.335 1.34-1.287 2.266-1.287 4.18 0 2.71-1.714-.535-2.25-1.608-.604-1.207-.662-2.591-1.608-3.537-.884-.884-.68-3.215-1.929-3.215-.764 0-4.342-.48-4.823 0-1.612 1.612-1.87.076-3.858-.322-2.194-.438-3.63-1.01-5.466-1.929-1.006-.503-3.318-2.572-4.823-2.572-2.728 0-7.272-.048-8.038.322l-27.821 4.32c-35.864-3.488-67.23-13.894-90.405-19.427-36.655-8.75-78.188-25.4-110.007-28.808-.886 15.125-30.077 2.151-84.45 4.685l5.454 5.762c-55.23-.98-43.85 9.437-31.711 11.392-91.753.84-12.556 18.161 10.906 18.005l-22.719 8.687c23.83 8.253 44.976 5.191 62.36 2.165-15.517 9.825-26.543 15.305 30.263 14.545-17.016 10.557 8.51 8.96 25.864 9.699-4.558 11.674 14.578 8.768 31.683 7.112-1.327 5.957 4.502 6.202 16.557 4.776-3.07 9.778 12.526 7.268 23.181 5.04.374 6.275 10.395 5.449 23.534 1.174-.42 6.652 10.283 5.85 20.136 1.607-.963 7.064 10.64 9.377 18.022 3.568 1.592 4.363 3.94 8.024 16.596 2.112-.54 9.913 11.718 5.91 15.993 3.32 4.3 7.137 13.338 3.477 18.105.603 5.604 6.341 11.97 2.77 18.375-4.501z" fill="#ffce31" fill-rule="evenodd" stroke="#000" stroke-width="1.471"/><g fill-rule="evenodd" stroke="#ffce31" stroke-linecap="square" stroke-width="1.471"><path d="M364.287 625.036c2.418-2.504 4.737-9.322-.865-10.261-4.924-.826-4.255 8.685.865 10.26z"/><path d="M372.822 627.105c2.074-4.226 3.937-11.393-1.293-11.122-5.7.295-3.051 6.96 1.293 11.122z"/><path d="M379.668 627.105c3.368-3.191 5.491-11.22.26-10.95-5.699.296-4.087 6.788-.26 10.95z"/></g><path d="M177.186 506.01c61.194 27.613 175.074 70.216 177.065 53.77-56.557-19.402-139.482-46.773-177.065-53.77zm438.982-3.38c-59.467 28.65-173.346 71.253-179.485 47.205 55.867-15.946 124.013-32.699 179.485-47.205z" style="marker:none" overflow="visible" fill-rule="evenodd" stroke="#000" stroke-width="1.471"/><path d="M385.46 590c.623-.004 1.697.081 2.577.081.92 0 1.863.649 2.656.966.736.295 1.35.403 2.174.403.464 0 1.082-.984 1.53-1.208.8-.4 2.56-.322 3.461-.322 1.164 0 2.336-1.772 2.818-2.254.092-.092-1.814 1.464 0 1.69.848.106 1.784.225 2.576.564.67.287 1.525.242 2.254.242 1.726 0 3.827-.179 5.394-.806.167-.066.322-.16.483-.241 1.058-.529 2.049-1.539 3.3-1.852 1.267-.316 1.554-1.035 2.416-1.61.747-.498 3.046-2.805.966-.724-1.026 1.026-1.115 1.966-2.496 2.656l-.483.242-.644.322c-2.347 1.173 1.276.563 2.415.563h3.14c1.785 0 3.32 1.357 4.991 1.691.62.124.698.607 1.288.725.07.014.476.556.564.644m-72.683-31.904c-5.142 13.954-.468 17.762-.97 26.503m-2.023-16.969c-4.267 2.862-14.019 9.374-21.581 3.523-6.892.845-12.973 1.111-12.726-3.142-6.047 2.57-11.334 3.37-14.296-1.257-8.703 2.942-15.378 3.857-13.825-3.457-4.452 2.573-16.093 5.184-14.297-3.299-4.607.55-14.495 4.47-14.61-5.184-6.504.924-12.979 1.816-12.411-5.342-6.554 1.109-14.695 4.003-13.354-3.77-6.665 1.118-13.717 2.734-13.354-5.184-6.184.423-12.378.69-11.478-5.97-3.577 1.222-12.691 2.346-11.459-4.556-4.656 1.646-18.866 1.463-13.982-5.656-6.326-.832-13.68-.995-11.94-7.07-5.692-.385-8.967-2.497-8.798-7.07l-10.525-6.755m25.02 5.051l-14.495 1.705m26.716 5.99l-17.918 1.08m29.686 2.088l-17.746 4.981m27.704-1.36l-13.722 7.016m25.037-2.943l-13.578 7.499m26.704-2.067l-15.226 8.037m26.88-3.11l-13.526 8.294m26.723-4.59l-13.37 8.36m25.64-4.193l-13.228 9.535m26.194-4.673l-11.584 9.857m24.087-5.69l-9.79 8.99m22.292-5.285l-8.467 8.74m22.359-5.035l-8.063 6.293m20.797-3.747l-8.071 6.889m143.694-7.937c4.266 2.862 13.004 9.712 21.243 2.847 6.891 2.197 16.689-.578 16.442-4.831 5.37.543 8.969-.685 11.93-5.312 8.366 1.591 15.379 1.83 13.826-5.483 4.451 2.572 14.742 3.831 13.62-3.3 4.608.551 10.78 2.443 12.922-4.846 6.503.924 14.668 4.857 14.1-4.328 6.554 1.108 12.667 3.327 11.327-4.446 6.665 1.118 15.068 4.086 14.705-3.833 1.938-3.84 10.013-2.688 9.113-9.348 2.767-.86 20.485-1.624 8.956-7.716-1.708-2.056.47-4.321 5.189-7.97m-11.34 6.817l6.15 1.153m-14.424 6.975l5.47.74m-19.272 4.353c4.831 1.304 8.902 2.798 10.158 4.996m-18.77 1.282l4.065 2.551m-29.764-2.901l18.437 7.347m-31.046-2.504l16.946 6.832m-28.898-3.997l15.977 8.844m-26.79-4.676l13.169 7.975m-25.671-1.906l11.846 7.39m-23.373-1.996l11.442 7.307m-24.176-1.382l7.734 6.213" style="marker:none" overflow="visible" fill="#ffce31" fill-rule="evenodd" stroke="#000" stroke-width="1.471"/><path d="M415.667 601.726c-3.654 2.05-7.505 3.539-11.495 4.552l-1.104 11.265c7.577.387 14.421-.262 22.305-3.863z" fill="#ffce31" fill-rule="evenodd" stroke="#000" stroke-width="1.471"/><path d="M408.96 605.158l.924 12.36m2.31-13.515l6.585 11.205" fill="none" stroke="#000" stroke-width="1.471"/><g fill-rule="evenodd" stroke="#ffce31" stroke-linecap="square" stroke-width="1.471"><path d="M415.473 626.195c3.65-5.169 4.945-12.857-1.14-12.485-6.565.401-2.687 8.324 1.14 12.485z"/><path d="M425.584 622.866c3.65-5.17.551-13.575-4.076-11.121-4.287 2.273-.881 7.807 4.076 11.121zm-20.629 3.674c5.47-4.04 6.258-11.328 1.024-11.515-6.216-.221-4.85 7.353-1.024 11.515z"/></g><path d="M401.505 606.875c-5.47 1.067-11.114 1.24-16.552.46.202 4.543 1.932 8.494 8.552 11.449 7.554-2.987 7.857-7.065 8.276-11.909-.105.022-.17-.02-.276 0z" fill-rule="evenodd"/><path d="M430.405 572.237c8.209-4.442 15.246-5.25 24.719-4.635-2.916 4.823-7.615 7.38-24.719 4.635z" fill-rule="evenodd" stroke="#000" stroke-width="1.471"/><path d="M460.98 567.747l-4.434 4.755" fill="#ffce31" fill-rule="evenodd" stroke="#000" stroke-width="1.471"/><path d="M446.164 568.673a1.783 1.783 0 010 2.52 1.783 1.783 0 01-2.52 0 1.783 1.783 0 010-2.52" style="marker:none" overflow="visible" fill-rule="evenodd" stroke="#ffce31" stroke-width="1.471"/><path d="M455.095 577.058c-4.884 4.707-18.297 4.715-18.708 14.432m-292.921-97.906l60.076 6.356m-24.445 6.433c-.157 0-.157.471 0 .471.17 0-2.302-1.568-4.476-2.003a17.866 17.866 0 00-3.652-.353c-1.659 0-1.814-.518-2.709-1.413-1.245-1.246-4.086-1.178-5.654-1.178-1.694 0-3.17.117-4.83.117-.859 0-1.776.086-2.591-.117-.616-.154-1.276-.892-2.12-1.06-.31-.063-.629-.08-.943-.118-1.465-.183-2.858-.354-4.358-.354-1.468 0-1.748-.407-2.945-.706-.241-.06-.471-.158-.707-.236-1.314-.438-2.793-.728-4.123-1.06-.584-.146-1.139-.676-1.884-.825-1.553-.31-3.28-.353-4.948-.353h-5.3m-52.179-.857c.505-.268 3.005.822 4.408 1.103 1.538.307 2.71 1.983 4.188 1.983.461 0 2.282 1.4 2.645 1.763.724.725 2.563 1.172 3.306 1.543 1.08.54 2.105.637 3.086.882 1.497.374 2.482.981 4.188 1.322 1.276.256 2.597.662 3.967.662h5.951c1.57 0 3.236-.22 4.85-.22 1.102 0 3.612 1.136 4.628 1.542 1.465.586 3.025 1.403 4.187 1.984 1.07.534 1.98 1.1 2.866 1.543 1.514.757 2.95.924 4.188 1.543.943.471 2.667.562 3.306.881.986.493 2.888.661 3.967.661 1.228 0 2.386.422 3.306.882.89.445 2.744.22 3.968.22 1.63 0 3.384.221 5.07.221 1.415 0 2.538-.44 3.967-.44 1.447 0 2.682-.221 4.187-.221 1.293 0 2.404-.22 3.747-.22.473 0 1.022-.221 1.543-.221m-118.14-6.171c2.409 0 4.52.276 6.172 1.101 1.367.684 2.986 1.163 4.187 1.764 1.213.606 2.24.678 3.527 1.322 1.258.629 3.34.661 4.85.661 1.626 0 3.19.441 4.848.441 1.363 0 2.727-.027 3.967.22 1.69.338 3.774 0 5.51 0h5.731c1.274 0 3.126-.12 4.409-.44 1.29-.323 3.35-.22 4.628-.22 1.613 0 3.371-.15 4.85.22 1.338.334 2.98 1.104 4.628 1.763 1.48.592 3.143 1.025 4.629 1.323 1.736.347 3.99.452 5.29 1.102 1.844.922 3.432-.013 5.29 1.102.898.539 3.51.881 4.628.881 2.14 0 4.263 1.323 6.171 1.323 3.532 0 7.207.7 10.58 1.543 1.617.404 3.834 0 5.51 0 2.889 0 5.885.22 8.817.22 4.22 0 7.85-.412 11.902-1.763.14-.047.294 0 .44 0m-109.457 5.43l33.675-2.445c20.549 9.284 52.685 5.445 79.027 3.53M93.542 537.24c38.773.657 58.067.64 81.472-4.616m16.656 7.06c-22.33 6.004-44.658 10.046-66.988 11.225m83.644-5.431c-21.26 8.478-40.538 13.489-57.935 15.208m67.35-6.518c-11.375 6.4-23.146 11.219-35.485 13.76m43.451-6.156c-9.052 5.344-17.71 9.4-26.763 10.978m41.525-8.11c-7.192 4.742-18.245 10.772-18.473 13.194m35.746-8.637l-11.995 9.836m28.308-6.717l-8.637 7.917m24.71-3.359l-6.237 7.437m23.989-5.758l-7.436 7.677m23.27-6.237l-7.197 9.356m20.871-6.717l-2.878 7.197" style="marker:none" overflow="visible" fill="#ffce31" fill-rule="evenodd" stroke="#000" stroke-width="1.471"/><path d="M355.576 623.384c-11.023 6.256-22.147 13.123-32.494 15.322m37.513-11.888c-6.914 9.941-14.31 16.018-21.927 20.342m29.588-12.945l-15.322 21.398m26.946-23.247l-9.51 28.003m18.492-27.475l-3.963 28.531m13.528-27.596l3.259 26.796m7.242-28.968c2.706 9.675 4.888 20.399 9.414 26.433m.725-29.692c2.558 8.624 6.267 16.96 12.673 24.623m-4.707-26.433c5.914 7.325 11.828 14.62 17.742 21.001m-10.5-25.347c6.848 5.311 12.436 10.622 21.001 15.933" style="marker:none" overflow="visible" fill="none" stroke="#000" stroke-width="1.471"/><path d="M634.386 496.064l-45.977 4.143m25.681 3.313c32.567-1.357 64.336-3.779 93.61-9.527m-75.242 21.137c11.105-.146 22.21-1.126 33.315-7.38 15.65-.33 30.142-4.707 44.7-8.855m-90.033 24.248c18.637 1.589 37.278 3.148 57.562-5.693 20.829-.242 41.867-2.578 63.256-8.434M620.595 529.39c23.796 6.648 45.37 6.078 64.74-1.66h51.46M613.54 538.52c23.069 5.133 46.382 8.073 70.55 3.32l9.13 2.075m-94.206.415c18.718 5.536 39.112 9.814 62.25 12.035m-72.326-4.84c12.372 3.786 24.886 9.258 38.042 11.478m-60.67-8.526c12.323 5.196 24.26 11.164 37.385 14.757m-43.617-6.231l26.892 13.118m-41.213-10.275l26.834 15.027m-39.714-11.449l21.825 14.311m-36.852-10.018l20.751 13.596m-35.421-8.945l18.963 11.807m-30.411-6.44l12.88 10.018m-21.825-4.651l8.587 6.798m-17.174.358l2.862 3.577" style="marker:none" overflow="visible" fill="#ffce31" fill-rule="evenodd" stroke="#000" stroke-width="1.471"/><g transform="translate(.004) scale(.9995)"><path d="M389.895 242l-52.198 3.309-60.293 18.75h-34.559l-7.363-49.265c1.951-26.692-.295-68.342 51.103-49.264-21.07-10.848-2.424-23.333 10.231-23.333 14.158 0 30.908 10.062 47.04 14.57 15.447 4.317 27.575 3.983 46.039 3.983 18.464 0 30.591.334 46.04-3.983 16.13-4.508 32.88-14.57 47.038-14.57 12.655 0 31.302 12.485 10.231 23.333 51.398-19.078 49.152 22.572 51.103 49.264l-7.363 49.265h-34.558l-60.294-18.75z" fill="#841021" fill-rule="evenodd" stroke="#000" stroke-width="4.416" stroke-linecap="square"/><g fill="none" stroke-linecap="round"><path d="M538.728 205.81c42.132-34.422 17.457-113.541-41.743-113.541-35.746 0-63.01 31.725-106.862 31.725" stroke="#000" stroke-width="19.873"/><path d="M538.728 205.81c42.132-34.422 17.457-113.541-41.743-113.541-35.746 0-63.01 31.725-106.862 31.725" stroke="#ffce31" stroke-width="11.776"/></g><g fill="none" stroke-linecap="round"><path d="M240.725 205.81c-42.132-34.422-17.457-113.541 41.743-113.541 35.746 0 63.01 31.725 106.862 31.725" stroke="#000" stroke-width="19.873"/><path d="M240.725 205.81c-42.132-34.422-17.457-113.541 41.743-113.541 35.746 0 63.01 31.725 106.862 31.725" stroke="#ffce31" stroke-width="11.776"/></g><path d="M389.895 272.094l-143.018 14.72-30.202-59.587 34.154-25.712c-8.105 28.307-11.722 59.076 5.585 15.466l20.317 35.19s-25.917-3.028-27.022.858c-2.144 7.533 56.595 16.662 58.333-23.161l11.299-1.132c40.334 30.176 66.704-8.053 62.21-12.559-5.213-5.225-23.657 11.643-23.657 11.643v-42.047s18.805 18.267 22.185 14.888c3.3-3.3-13.64-21.528-13.64-21.528h46.91s-16.938 18.228-13.639 21.528c3.38 3.38 22.185-14.888 22.185-14.888v42.047s-18.444-16.868-23.657-11.643c-4.494 4.506 21.876 42.735 62.21 12.559l11.3 1.132c1.737 39.823 60.476 30.694 58.332 23.161-1.105-3.886-27.022-.858-27.022-.858l20.317-35.19c17.307 43.61 13.69 12.841 5.585-15.466l34.154 25.712-30.202 59.587z" fill="#ffce31" fill-rule="evenodd" stroke="#000" stroke-width="2.944" stroke-linecap="square"/><path d="M515.24 319.866l16.542-22.83s-58.632-41.218-142.055-41.218c-82.917 0-142.056 41.217-142.056 41.217l16.543 22.83s62.756-32.372 125.513-32.372c62.756 0 125.513 32.373 125.513 32.373z" fill="#ffce31" fill-rule="evenodd" stroke="#000" stroke-width="2.944"/><path d="M389.718 316.389l-3.142-5.386c-1.662 4.459-15.112 9.978-11.221 0-13.608 11.98-12.896 5.653-12.567 1.346-11.37 10.172-14.04 5.01-12.656.864-2.148 2.111-21.178 17.068-13.326 1.967-3.187 3.625-24.08 21.127-18.453 6.146-2.822 4.558-22.731 19.781-15.615 6.142-3.47 4.531-21.124 22.105-15.996 6.607-1.86 5.461-17.73 18.578-11.659 2.976-6.254 9.062-25.518 17.528-16.372 4.962-16.143 9.394-18.697-9.52-1.173-4.986-13.025-1.453-19.701-8.875-.004-7.787-17.907-1.82 1.232-11.508 12.972-6.817-7.52-3.384-16.367-6.034 7.938-5.135-6.63-.637-17.456-5.19 10.064-5.031-6.54-.445-3.267-7.39 12.997-4.49-7.335-2.207-8.911-6.817 13.234-4.49-7.432-1.22-14.864-10.089 13.47-2.836-11.132-3.905-4.402-7.44 12.76-4.726-15.929-2.99 2.76-8.662 12.288.236-7.939-7.867 2.621-8.689 13.233-1.418-8.468-6.486 3.057-9.453 13.234-1.181-9.349-8.365 3.273-8.983 9.994-2.045 6.721-6.938 19.343-6.32 9.995 2.045 10.176-8.272 21.702-5.305 13.233 1.181 10.612-7.271 21.172-6.45 13.233 1.418 9.527-8.898 28.217-3.226 12.288-.236 17.162-2.713 23.892.821 12.76 4.726 28.335-7.253 20.902 1.616 13.47 2.836 22.145-2.327 20.57 2.283 13.234 4.49 16.264-2.9 19.538 4.045 12.997 4.49 27.52-.16 16.694 4.394 10.064 5.031 24.305-.9 15.457 1.75 7.939 5.135 11.74-4.691 30.878 4.997 12.971 6.817 19.697-1.088 13.021 6.334-.004 7.787 17.524-4.534 14.97 14.38-1.173 4.986 9.146 12.566-10.118 4.1-16.372-4.962 6.071 15.602-9.798 2.485-11.659-2.976 5.128 15.498-12.526-2.076-15.996-6.607 7.117 13.64-12.793-1.584-15.614-6.142 5.626 14.98-15.266-2.52-18.453-6.146 7.852 15.101-11.178.144-13.327-1.967 1.385 4.146-1.286 9.308-12.655-.864.329 4.307 1.04 10.635-12.568-1.346 3.89 9.978-9.558 4.459-11.22 0z" fill="#fff" fill-rule="evenodd" stroke="#000" stroke-width="2.944"/><g id="d" opacity="1" font-size="12" fill-rule="evenodd"><path d="M405.016 300.606l-5.321 1.502 3.455 3.62-19.133-5.17 19.133-5.169-3.455 3.808z" stroke="#000" stroke-width="0"/><path d="M206.209 237.996a5.869 5.869 0 11-11.738 0 5.869 5.869 0 0111.738 0z" transform="rotate(-90 334.404 32.339) scale(.34493)"/><path d="M197.993 228.312a5.869 5.869 0 11-11.738 0 5.869 5.869 0 0111.738 0zm-8.587 9.39a5.869 5.869 0 11-11.738 0 5.869 5.869 0 0111.738 0z" transform="rotate(-90 334.404 32.339) scale(.34493)"/></g><use height="1052.362" width="744.094" transform="rotate(-15 390.396 498.357)" xlink:href="#d"/><use xlink:href="#d" transform="rotate(-30 381.82 501.42)" width="744.094" height="1052.362"/><use height="1052.362" width="744.094" transform="rotate(15 391.871 498.697)" xlink:href="#d"/><use xlink:href="#d" transform="rotate(30 399.202 500.553)" width="744.094" height="1052.362"/><path fill="#29007b" stroke="#000" stroke-width="2.944" stroke-linecap="round" stroke-dashoffset="1" d="M374.161 264.051h31.132v16.863h-31.132z"/><ellipse ry="5.818" rx="9.636" cy="363.987" cx="336.997" transform="rotate(-16.286 -480.496 1035.103) scale(1.47206)" id="e" opacity="1" fill="#006b10" fill-opacity="1" fill-rule="nonzero" stroke="#000" stroke-width="2" stroke-linecap="round" stroke-linejoin="miter" stroke-miterlimit="4" stroke-dasharray="none" stroke-dashoffset="1" stroke-opacity="1"/><use height="1052.362" width="744.094" transform="matrix(-1 0 0 1 779.453 0)" xlink:href="#e"/><path id="f" d="M338.738 268.234c-1.914.537-3.122 2.452-2.774 4.452a3.903 3.903 0 004.523 3.181 3.903 3.903 0 003.182-4.523 3.903 3.903 0 00-4.523-3.181c-.134.023-.28.035-.408.07zm20.258-3.528c-1.914.537-3.167 2.46-2.82 4.46.372 2.133 2.436 3.545 4.57 3.174a3.903 3.903 0 003.18-4.523 3.903 3.903 0 00-4.522-3.182c-.134.023-.28.035-.408.071zm-9.25 7.214c-1.86.573-3.071 2.478-2.729 4.444a3.903 3.903 0 004.523 3.182c2.134-.372 3.599-2.398 3.227-4.531-.371-2.133-2.435-3.545-4.568-3.174-.167.03-.296.03-.453.08zm-8.805 7.09c-2.078.416-3.449 2.453-3.083 4.553a3.903 3.903 0 004.523 3.18 3.903 3.903 0 003.181-4.522c-.371-2.133-2.397-3.598-4.53-3.227l-.091.016zm20.258-3.528c-2.078.417-3.494 2.461-3.128 4.56.371 2.134 2.435 3.546 4.568 3.174a3.903 3.903 0 003.181-4.523c-.371-2.133-2.397-3.598-4.53-3.226l-.091.015z" opacity="1" fill="#fff5f3" fill-opacity="1" fill-rule="nonzero" stroke="#000" stroke-width="1.472" stroke-linecap="round" stroke-linejoin="miter" stroke-miterlimit="4" stroke-dasharray="none" stroke-dashoffset="1" stroke-opacity="1"/><use height="1052.362" width="744.094" transform="rotate(-14.064 395.989 550.73)" xlink:href="#f"/><use xlink:href="#f" transform="scale(-1 1) rotate(-14.064 6.263 3710.23)" width="744.094" height="1052.362"/><use height="1052.362" width="744.094" transform="matrix(-1 0 0 1 779.453 0)" xlink:href="#f"/><path id="g" d="M249.928 301.947l13.836-7.13 7.726 14.989-13.837 7.13-13.253-3.327z" opacity="1" fill="#bd2129" fill-opacity="1" fill-rule="nonzero" stroke="#000" stroke-width="2.944" stroke-linecap="round" stroke-linejoin="miter" stroke-miterlimit="4" stroke-dashoffset="1" stroke-opacity="1"/><use height="1052.362" width="744.094" transform="matrix(-1 0 0 1 779.453 0)" xlink:href="#g"/><path id="h" d="M296.081 144.446c-6.74.488-15.977 3.417-16.699 11.179 1.187 3.991 4.707 5.956 8.005 8.188l-1.518 3.404c-10.658-2.763-21.619-6.782-32.156-2.254-3.112 1.752-7.617 4.485-7.866 7.912 8.835 13.73 26.608 16.936 41.862 17.527 15.942.13 33.612-3.734 43.747-16.975 4.843-8.318.055-20.083-9.338-22.31-8.38-3.338-16.829-6.562-25.899-6.67-.053.003-.085-.005-.138 0z" opacity="1" fill="#bd2129" fill-opacity="1" fill-rule="nonzero" stroke="none" stroke-width="2.859" stroke-linecap="square" stroke-linejoin="miter" stroke-miterlimit="4" stroke-dasharray="none" stroke-dashoffset="1" stroke-opacity="1"/><g transform="translate(-179.21 -253.838) scale(1.47206)" id="i" opacity="1" fill="#ffce31" stroke="#000" stroke-width="2"><path d="M339.81 326.873l-4.343.272c-4.862-24.808 20.263-32.733 23.07-22.256 2.74 10.222-5.997 14.89-1.357 23.884-4.279 1.167-8.563-.822-8.956-6.514-.944-13.665-10.187-.785-8.414 4.614zm-10.825-.378l5.012-2.36c-10.821-22.847-34.385-14.03-30.422-3.934 3.868 9.85 10.412 5.705 12.563 17.325 3.05-.246 5.526-5.321 4.423-8.117-4.641-11.764 6.644-8.31 8.424-2.914z" fill-rule="evenodd"/><path d="M334.925 327.145c-10.758-13.193-17.518-27.185-10.314-43.97 11.045 9.332 13.736 24.511 10.314 43.97z" fill-rule="evenodd"/><rect width="17.776" height="7.738" x="237.196" y="395.332" ry="3.434" transform="rotate(-13.907)" stroke-linecap="round" stroke-dashoffset="1"/></g><circle r="5.276" cy="347.619" cx="278.407" transform="translate(-179.21 -253.838) scale(1.47206)" id="j" opacity="1" fill="#fff5f3" fill-opacity="1" fill-rule="nonzero" stroke="#000" stroke-width="2" stroke-linecap="round" stroke-linejoin="miter" stroke-miterlimit="4" stroke-dasharray="none" stroke-dashoffset="1" stroke-opacity="1"/><g fill-rule="evenodd"><path d="M389.88 245.006c-84.68 0-146.47 42.69-146.47 42.69a5.902 5.902 0 006.715 9.706s59.031-40.62 139.754-40.62c78.822 0 139.846 40.666 139.846 40.666a5.9 5.9 0 006.578-9.798s-63.554-42.644-146.424-42.644z"/><path d="M389.88 247.95c-83.691 0-144.769 42.184-144.769 42.184a2.944 2.944 0 103.312 4.83s59.744-41.125 141.456-41.125c79.834 0 141.502 41.171 141.502 41.171a2.954 2.954 0 003.266-4.922s-62.91-42.138-144.768-42.138z" fill="#ffce31"/></g><circle r="5.276" cy="347.619" cx="278.407" transform="translate(19.476 -254.825) scale(1.33049)" fill="#fff5f3" stroke="#000" stroke-width="2.213" stroke-linecap="round" stroke-dashoffset="1"/><use height="1052.362" width="744.094" transform="matrix(-1 0 0 1 779.453 0)" xlink:href="#h"/><use height="1052.362" width="744.094" transform="matrix(-1 0 0 1 779.453 0)" xlink:href="#i"/><use height="1052.362" width="744.094" transform="matrix(-1 0 0 1 779.453 0)" xlink:href="#j"/><g transform="translate(-179.21 -253.838) scale(1.47206)"><path fill="#ffce31" stroke="#000" stroke-width="1.5" stroke-linecap="round" stroke-linejoin="round" stroke-dashoffset="1" d="M370.103 239.777h33.427v53.757h-33.427z"/><path fill="#ffce31" stroke="#000" stroke-width="1.5" stroke-linecap="round" stroke-linejoin="round" stroke-dashoffset="1" d="M379.414 239.777h14.803v53.757h-14.803z"/><circle r="4.346" cy="246.132" cx="386.754" transform="translate(35.73 22.983) scale(.90723)" id="k" opacity="1" fill="#fff" fill-opacity="1" fill-rule="nonzero" stroke="#000" stroke-width="1" stroke-linecap="round" stroke-linejoin="round" stroke-miterlimit="4" stroke-dasharray="none" stroke-dashoffset="1" stroke-opacity="1"/><use height="1052.362" width="744.094" transform="translate(0 10.116)" xlink:href="#k"/><use xlink:href="#k" transform="translate(0 20.232)" width="744.094" height="1052.362"/><use height="1052.362" width="744.094" transform="translate(0 30.348)" xlink:href="#k"/><use xlink:href="#k" transform="translate(0 40.464)" width="744.094" height="1052.362"/><path d="M374.625 173.188c.96.652 1.933 1.464 2.875 2.406 3.482 3.482 5.135 7.459 3.688 8.906-1.448 1.447-5.456-.206-8.938-3.688a19.915 19.915 0 01-2.406-2.906v23.844a19.916 19.916 0 012.406-2.906c2.448-2.449 5.138-4.021 7.031-4.219.775-.08 1.444.099 1.875.5l.031.031c1.448 1.447-.205 5.424-3.687 8.906a19.738 19.738 0 01-2.906 2.407h23.812a19.738 19.738 0 01-2.906-2.407c-3.482-3.482-5.135-7.459-3.688-8.906.283-.282.67-.475 1.125-.531 1.873-.23 5.011 1.417 7.813 4.219.925.925 1.732 1.874 2.375 2.812V178c-.643.938-1.45 1.888-2.375 2.813-3.482 3.481-7.49 5.134-8.938 3.687-1.447-1.447.206-5.424 3.688-8.906a20.473 20.473 0 012.875-2.406z" fill="#ffce31" stroke="#000" stroke-width="1.5" stroke-linecap="round" stroke-dashoffset="1"/><circle r="18.604" cy="220.982" cx="386.737" transform="translate(23.014 13.338) scale(.9407)" fill="#ffce31" stroke="#000" stroke-width="1.595" stroke-linecap="round" stroke-dashoffset="1"/><path d="M386.254 203.71a17.65 17.65 0 00-4.027.618v12.288H369.91c-.4 1.468-.588 2.992-.588 4.586 0 1.594.188 3.148.588 4.615h33.806c.4-1.467.588-3.021.588-4.615 0-1.594-.188-3.118-.588-4.586h-12.317v-12.288a17.543 17.543 0 00-4.586-.617c-.189 0-.372-.006-.559 0z" fill="none" stroke="#000" stroke-linecap="round" stroke-dashoffset="1"/><use xlink:href="#l" transform="translate(0 -6)" width="744.094" height="1052.362"/><circle r="3.442" cy="189.236" cx="386.629" transform="translate(-.138 .59)" fill="#fff" stroke="#000" stroke-width="1.5" stroke-linecap="round" stroke-linejoin="round" stroke-dashoffset="1"/><circle r="2.558" cy="220.749" cx="386.505" transform="translate(.311 .465)" fill="#841021" stroke="#000" stroke-linecap="round" stroke-dashoffset="1"/><circle r="2.558" cy="220.749" cx="386.505" id="l" transform="translate(.311 -6)" opacity="1" fill="#fff" fill-opacity="1" fill-rule="nonzero" stroke="#000" stroke-width="1" stroke-linecap="round" stroke-linejoin="miter" stroke-miterlimit="4" stroke-dasharray="none" stroke-dashoffset="1" stroke-opacity="1"/><use height="1052.362" width="744.094" transform="translate(-6.311 6.465)" xlink:href="#l"/><use height="1052.362" width="744.094" transform="translate(-17.311 6.465)" xlink:href="#l"/><use xlink:href="#l" transform="translate(-12.311 6.465)" width="744.094" height="1052.362"/><use xlink:href="#l" transform="translate(5.689 6.465)" width="744.094" height="1052.362"/><use xlink:href="#l" transform="translate(16.689 6.465)" width="744.094" height="1052.362"/><use height="1052.362" width="744.094" transform="translate(11.689 6.465)" xlink:href="#l"/></g><g transform="translate(-179.21 -253.838) scale(1.47206)" id="n" opacity="1"><circle r="5.755" cy="240.549" cx="366.241" id="m" transform="translate(-23.555 -14.379) scale(1.06319)" opacity="1" fill="#fff" fill-opacity="1" fill-rule="nonzero" stroke="#000" stroke-width="2.822" stroke-linecap="round" stroke-linejoin="miter" stroke-miterlimit="4" stroke-dasharray="none" stroke-dashoffset="1" stroke-opacity="1"/><use xlink:href="#m" transform="translate(-18.497 -8.22)" width="744.094" height="1052.362"/><use height="1052.362" width="744.094" transform="translate(-37.799 -15.209)" xlink:href="#m"/><use xlink:href="#m" transform="translate(-58.905 -16.584)" width="744.094" height="1052.362"/><use height="1052.362" width="744.094" transform="translate(-80.547 -9.471)" xlink:href="#m"/><use xlink:href="#m" transform="translate(-96.596 6.577)" width="744.094" height="1052.362"/><use height="1052.362" width="744.094" transform="translate(-105.638 28.362)" xlink:href="#m"/><use xlink:href="#m" transform="translate(-105.085 52.077)" width="744.094" height="1052.362"/><use height="1052.362" width="744.094" transform="translate(-94.13 73.577)" xlink:href="#m"/></g><use height="1000" width="777.519" transform="matrix(-1 0 0 1 777.519 0)" xlink:href="#n"/></g></g></svg>